USFL
nRows=227
nColumns=2
inDegrees=yes
endheader
time	tib_ant_r	
2.69456	 86.235729	
2.72782	 86.212554	
2.76109	 86.220586	
2.79435	 86.224489	
2.82762	 86.205072	
2.86089	 86.196797	
2.89415	 86.200230	
2.92742	 86.228622	
2.96069	 86.254135	
2.99395	 86.247879	
3.02722	 86.262486	
3.06048	 86.267824	
3.09375	 86.291460	
3.12702	 86.304379	
3.16028	 86.249453	
3.19355	 86.244581	
3.22681	 86.258144	
3.26008	 86.271667	
3.29335	 86.287854	
3.32661	 86.327527	
3.35988	 86.328837	
3.39315	 86.330085	
3.42641	 86.377405	
3.45968	 86.462751	
3.49294	 86.532899	
3.52621	 86.479294	
3.55948	 86.421826	
3.59274	 86.392151	
3.62601	 86.395767	
3.65927	 86.354151	
3.69254	 86.335464	
3.72581	 86.316334	
3.75907	 86.312011	
3.79234	 86.283685	
3.8256	 86.302938	
3.85887	 86.306642	
3.89214	 86.283915	
3.9254	 86.289388	
3.95867	 86.301467	
3.99194	 86.287410	
4.0252	 86.250516	
4.05847	 86.231649	
4.09173	 86.218503	
4.125	 86.223590	
4.15827	 86.188823	
4.19153	 86.210270	
4.2248	 86.208326	
4.25806	 86.302473	
4.29133	 86.283930	
4.3246	 86.342325	
4.35786	 86.309081	
4.39113	 86.147766	
4.4244	 86.324159	
4.45766	 86.292529	
4.49093	 86.255566	
4.52419	 86.231541	
4.55746	 86.286712	
4.59073	 86.293846	
4.62399	 86.126751	
4.65726	 85.923663	
4.69052	 85.785000	
4.72379	 85.945962	
4.75706	 86.514165	
4.79032	 86.824162	
4.82359	 86.721156	
4.85685	 87.232940	
4.89012	 77.781762	
4.92339	 78.235177	
4.95665	 78.553310	
4.98992	 78.390087	
5.02319	 78.263919	
5.05645	 78.389556	
5.08972	 78.186221	
5.12298	 77.910304	
5.15625	 77.939833	
5.18952	 77.828807	
5.22278	 77.703110	
5.25605	 77.560531	
5.28931	 77.609663	
5.32258	 77.574624	
5.35585	 77.325364	
5.38911	 77.306678	
5.42238	 77.381384	
5.45565	 77.333146	
5.48891	 77.486986	
5.52218	 77.534643	
5.55544	 77.561767	
5.58871	 77.853829	
5.62198	 77.884587	
5.65524	 78.064901	
5.68851	 78.113613	
5.72177	 78.193469	
5.75504	 78.226512	
5.78831	 78.167336	
5.82157	 78.348796	
5.85484	 78.393981	
5.8881	 78.369456	
5.92137	 78.359674	
5.95464	 78.404708	
5.9879	 78.505693	
6.02117	 78.481749	
6.05444	 78.465345	
6.0877	 78.507737	
6.12097	 78.527768	
6.15423	 78.508966	
6.1875	 78.504125	
6.22077	 78.532234	
6.25403	 78.500682	
6.2873	 78.573439	
6.32056	 78.581580	
6.35383	 78.637145	
6.3871	 78.595166	
6.42036	 78.538650	
6.45363	 78.554630	
6.4869	 78.609113	
6.52016	 78.635576	
6.55343	 78.651872	
6.58669	 78.619632	
6.61996	 78.567584	
6.65323	 78.558065	
6.68649	 78.581892	
6.71976	 78.635978	
6.75302	 78.656733	
6.78629	 78.642929	
6.81956	 78.606442	
6.85282	 78.574136	
6.88609	 78.533947	
6.91935	 78.599935	
6.95262	 78.628091	
6.98589	 78.619252	
7.01915	 78.664674	
7.05242	 78.613976	
7.08569	 78.668855	
7.11895	 78.703715	
7.15222	 78.701171	
7.18548	 78.751520	
7.21875	 78.755077	
7.25202	 78.773123	
7.28528	 78.787102	
7.31855	 78.800085	
7.35181	 78.776654	
7.38508	 78.861858	
7.41835	 78.865402	
7.45161	 78.828485	
7.48488	 78.832034	
7.51815	 78.786506	
7.55141	 78.833621	
7.58468	 78.791392	
7.61794	 78.793651	
7.65121	 78.794726	
7.68448	 78.830882	
7.71774	 78.833236	
7.75101	 78.778183	
7.78427	 78.737807	
7.81754	 78.785965	
7.85081	 78.862208	
7.88407	 78.830778	
7.91734	 78.867336	
7.9506	 78.866580	
7.98387	 78.820484	
8.01714	 78.897041	
8.0504	 78.786336	
8.08367	 78.834391	
8.11694	 78.889114	
8.1502	 78.903578	
8.18347	 78.904121	
8.21673	 78.863001	
8.25	 78.863548	
8.28327	 78.911175	
8.31653	 78.882163	
8.3498	 78.857662	
8.38306	 78.829102	
8.41633	 78.803146	
8.4496	 78.784041	
8.48286	 78.806813	
8.51613	 78.818031	
8.5494	 78.898499	
8.58266	 78.852075	
8.61593	 78.843117	
8.64919	 78.861183	
8.68246	 78.817185	
8.71573	 78.795152	
8.74899	 78.841809	
8.78226	 78.846955	
8.81552	 78.872433	
8.84879	 78.883443	
8.88206	 78.862387	
8.91532	 78.881588	
8.94859	 78.831160	
8.98185	 78.752601	
9.01512	 78.926415	
9.04839	 78.908804	
9.08165	 78.953277	
9.11492	 79.028844	
9.14819	 78.992203	
9.18145	 79.058082	
9.21472	 79.066113	
9.24798	 90.431347	
9.28125	 90.521579	
9.31452	 90.565905	
9.34778	 90.544735	
9.38105	 90.520282	
9.41431	 90.494945	
9.44758	 90.510512	
9.48085	 90.612650	
9.51411	 90.400818	
9.54738	 90.602389	
9.58065	 90.692815	
9.61391	 90.582344	
9.64718	 90.750022	
9.68044	 90.775471	
9.71371	 90.804990	
9.74698	 90.860757	
9.78024	 90.905879	
9.81351	 90.937424	
9.84677	 90.965563	
9.88004	 91.006235	
9.91331	 91.193751	
9.94657	 91.062060	
9.97984	 91.024825	
10.0131	 90.959012	
10.0464	 91.041723	
10.0796	 91.003593	
10.1129	 91.126626	
10.1462	 91.155777	
10.1794	 90.940387	
10.2127	 91.054097	
